<svg t="1693657771747" class="icon" viewBox="0 0 1024 1024" version="1.1" xmlns="http://www.w3.org/2000/svg" p-id="1304" width="200" height="200"><path d="M861.269333 327.317333L504.682667 541.269333l-21.973334-36.586666 356.608-213.973334 21.952 36.608z" fill="#000000" p-id="1305"></path><path d="M441.450667 156.181333C274.922667 189.013333 149.333333 335.850667 149.333333 512c0 200.298667 162.368 362.666667 362.666667 362.666667s362.666667-162.368 362.666667-362.666667c0-176.149333-125.589333-322.986667-292.117334-355.818667l8.234667-41.856C776.96 151.018667 917.333333 315.072 917.333333 512c0 223.850667-181.482667 405.333333-405.333333 405.333333S106.666667 735.850667 106.666667 512c0-196.906667 140.394667-361.002667 326.549333-397.674667l8.234667 41.856z" fill="#000000" p-id="1306"></path><path d="M512 0a21.333333 21.333333 0 0 1 18.304 10.368l64 106.666667a21.333333 21.333333 0 0 1 0 21.952l-64 106.666666a21.333333 21.333333 0 0 1-36.608 0l-64-106.666666a21.333333 21.333333 0 0 1 0-21.973334l64-106.666666A21.333333 21.333333 0 0 1 512 0z m-39.125333 128L512 193.194667 551.125333 128 512 62.805333 472.874667 128z" fill="#000000" p-id="1307"></path><path d="M576 512a64 64 0 1 1-128 0 64 64 0 0 1 128 0z" fill="#000000" p-id="1308"></path></svg>